<mxfile host="app.diagrams.net" agent="Mozilla/5.0 (X11; Ubuntu; Linux x86_64; rv:138.0) Gecko/20100101 Firefox/138.0" version="27.0.6">
  <diagram name="PÃ¡gina-1" id="WXNYqP9_QlmboNluIvX_">
    <mxGraphModel dx="2233" dy="1115" grid="1" gridSize="10" guides="1" tooltips="1" connect="1" arrows="1" fold="1" page="1" pageScale="1" pageWidth="827" pageHeight="1169" math="0" shadow="0">
      <root>
        <mxCell id="0" />
        <mxCell id="1" parent="0" />
        <mxCell id="h962pQqPmAyZ0oJqMDP0-34" value="Navegador" style="swimlane;fontStyle=1;align=center;verticalAlign=top;childLayout=stackLayout;horizontal=1;startSize=40;horizontalStack=0;resizeParent=1;resizeParentMax=0;resizeLast=0;collapsible=0;marginBottom=0;" vertex="1" parent="1">
          <mxGeometry x="400" y="50" width="449" height="168" as="geometry" />
        </mxCell>
        <mxCell id="h962pQqPmAyZ0oJqMDP0-35" value="- estrategiaRuta: EstrategiaRuta" style="text;strokeColor=none;fillColor=none;align=left;verticalAlign=top;spacingLeft=4;spacingRight=4;overflow=hidden;rotatable=0;points=[[0,0.5],[1,0.5]];portConstraint=eastwest;" vertex="1" parent="h962pQqPmAyZ0oJqMDP0-34">
          <mxGeometry y="40" width="449" height="40" as="geometry" />
        </mxCell>
        <mxCell id="h962pQqPmAyZ0oJqMDP0-36" style="line;strokeWidth=1;fillColor=none;align=left;verticalAlign=middle;spacingTop=-1;spacingLeft=3;spacingRight=3;rotatable=0;labelPosition=right;points=[];portConstraint=eastwest;strokeColor=inherit;" vertex="1" parent="h962pQqPmAyZ0oJqMDP0-34">
          <mxGeometry y="80" width="449" height="8" as="geometry" />
        </mxCell>
        <mxCell id="h962pQqPmAyZ0oJqMDP0-37" value="+ setEstrategia(EstrategiaRuta)" style="text;strokeColor=none;fillColor=none;align=left;verticalAlign=top;spacingLeft=4;spacingRight=4;overflow=hidden;rotatable=0;points=[[0,0.5],[1,0.5]];portConstraint=eastwest;" vertex="1" parent="h962pQqPmAyZ0oJqMDP0-34">
          <mxGeometry y="88" width="449" height="40" as="geometry" />
        </mxCell>
        <mxCell id="h962pQqPmAyZ0oJqMDP0-38" value="+ calcularRuta(origen: String, destino: String) : String" style="text;strokeColor=none;fillColor=none;align=left;verticalAlign=top;spacingLeft=4;spacingRight=4;overflow=hidden;rotatable=0;points=[[0,0.5],[1,0.5]];portConstraint=eastwest;" vertex="1" parent="h962pQqPmAyZ0oJqMDP0-34">
          <mxGeometry y="128" width="449" height="40" as="geometry" />
        </mxCell>
        <mxCell id="h962pQqPmAyZ0oJqMDP0-39" value="&lt;&lt;interface&gt;&gt;&#xa;EstrategiaRuta" style="swimlane;fontStyle=1;align=center;verticalAlign=top;childLayout=stackLayout;horizontal=1;startSize=71;horizontalStack=0;resizeParent=1;resizeParentMax=0;resizeLast=0;collapsible=0;marginBottom=0;" vertex="1" parent="1">
          <mxGeometry x="1015" y="520" width="431" height="126" as="geometry" />
        </mxCell>
        <mxCell id="h962pQqPmAyZ0oJqMDP0-40" style="line;strokeWidth=1;fillColor=none;align=left;verticalAlign=middle;spacingTop=-1;spacingLeft=3;spacingRight=3;rotatable=0;labelPosition=right;points=[];portConstraint=eastwest;strokeColor=inherit;" vertex="1" parent="h962pQqPmAyZ0oJqMDP0-39">
          <mxGeometry y="71" width="431" height="8" as="geometry" />
        </mxCell>
        <mxCell id="h962pQqPmAyZ0oJqMDP0-41" value="+ calcular(origen: String, destino: String) : String" style="text;strokeColor=none;fillColor=none;align=left;verticalAlign=top;spacingLeft=4;spacingRight=4;overflow=hidden;rotatable=0;points=[[0,0.5],[1,0.5]];portConstraint=eastwest;" vertex="1" parent="h962pQqPmAyZ0oJqMDP0-39">
          <mxGeometry y="79" width="431" height="47" as="geometry" />
        </mxCell>
        <mxCell id="h962pQqPmAyZ0oJqMDP0-42" value="RutaCarretera" style="swimlane;fontStyle=1;align=center;verticalAlign=top;childLayout=stackLayout;horizontal=1;startSize=47.2;horizontalStack=0;resizeParent=1;resizeParentMax=0;resizeLast=0;collapsible=0;marginBottom=0;" vertex="1" parent="1">
          <mxGeometry x="411" y="268" width="427" height="102.2" as="geometry" />
        </mxCell>
        <mxCell id="h962pQqPmAyZ0oJqMDP0-43" style="line;strokeWidth=1;fillColor=none;align=left;verticalAlign=middle;spacingTop=-1;spacingLeft=3;spacingRight=3;rotatable=0;labelPosition=right;points=[];portConstraint=eastwest;strokeColor=inherit;" vertex="1" parent="h962pQqPmAyZ0oJqMDP0-42">
          <mxGeometry y="47.2" width="427" height="8" as="geometry" />
        </mxCell>
        <mxCell id="h962pQqPmAyZ0oJqMDP0-44" value="+ calcular(origen: String, destino: String) : String" style="text;strokeColor=none;fillColor=none;align=left;verticalAlign=top;spacingLeft=4;spacingRight=4;overflow=hidden;rotatable=0;points=[[0,0.5],[1,0.5]];portConstraint=eastwest;" vertex="1" parent="h962pQqPmAyZ0oJqMDP0-42">
          <mxGeometry y="55.2" width="427" height="47" as="geometry" />
        </mxCell>
        <mxCell id="h962pQqPmAyZ0oJqMDP0-45" value="RutaPeatonal" style="swimlane;fontStyle=1;align=center;verticalAlign=top;childLayout=stackLayout;horizontal=1;startSize=47.2;horizontalStack=0;resizeParent=1;resizeParentMax=0;resizeLast=0;collapsible=0;marginBottom=0;" vertex="1" parent="1">
          <mxGeometry x="412" y="444" width="425" height="102.2" as="geometry" />
        </mxCell>
        <mxCell id="h962pQqPmAyZ0oJqMDP0-46" style="line;strokeWidth=1;fillColor=none;align=left;verticalAlign=middle;spacingTop=-1;spacingLeft=3;spacingRight=3;rotatable=0;labelPosition=right;points=[];portConstraint=eastwest;strokeColor=inherit;" vertex="1" parent="h962pQqPmAyZ0oJqMDP0-45">
          <mxGeometry y="47.2" width="425" height="8" as="geometry" />
        </mxCell>
        <mxCell id="h962pQqPmAyZ0oJqMDP0-47" value="+ calcular(origen: String, destino: String) : String" style="text;strokeColor=none;fillColor=none;align=left;verticalAlign=top;spacingLeft=4;spacingRight=4;overflow=hidden;rotatable=0;points=[[0,0.5],[1,0.5]];portConstraint=eastwest;" vertex="1" parent="h962pQqPmAyZ0oJqMDP0-45">
          <mxGeometry y="55.2" width="425" height="47" as="geometry" />
        </mxCell>
        <mxCell id="h962pQqPmAyZ0oJqMDP0-48" value="RutaTransportePublico" style="swimlane;fontStyle=1;align=center;verticalAlign=top;childLayout=stackLayout;horizontal=1;startSize=47.2;horizontalStack=0;resizeParent=1;resizeParentMax=0;resizeLast=0;collapsible=0;marginBottom=0;" vertex="1" parent="1">
          <mxGeometry x="393" y="620" width="462" height="102.2" as="geometry" />
        </mxCell>
        <mxCell id="h962pQqPmAyZ0oJqMDP0-49" style="line;strokeWidth=1;fillColor=none;align=left;verticalAlign=middle;spacingTop=-1;spacingLeft=3;spacingRight=3;rotatable=0;labelPosition=right;points=[];portConstraint=eastwest;strokeColor=inherit;" vertex="1" parent="h962pQqPmAyZ0oJqMDP0-48">
          <mxGeometry y="47.2" width="462" height="8" as="geometry" />
        </mxCell>
        <mxCell id="h962pQqPmAyZ0oJqMDP0-50" value="+ calcular(origen: String, destino: String) : String" style="text;strokeColor=none;fillColor=none;align=left;verticalAlign=top;spacingLeft=4;spacingRight=4;overflow=hidden;rotatable=0;points=[[0,0.5],[1,0.5]];portConstraint=eastwest;" vertex="1" parent="h962pQqPmAyZ0oJqMDP0-48">
          <mxGeometry y="55.2" width="462" height="47" as="geometry" />
        </mxCell>
        <mxCell id="h962pQqPmAyZ0oJqMDP0-51" value="RutaCiclista" style="swimlane;fontStyle=1;align=center;verticalAlign=top;childLayout=stackLayout;horizontal=1;startSize=47.2;horizontalStack=0;resizeParent=1;resizeParentMax=0;resizeLast=0;collapsible=0;marginBottom=0;" vertex="1" parent="1">
          <mxGeometry x="414" y="796" width="420" height="102.2" as="geometry" />
        </mxCell>
        <mxCell id="h962pQqPmAyZ0oJqMDP0-52" style="line;strokeWidth=1;fillColor=none;align=left;verticalAlign=middle;spacingTop=-1;spacingLeft=3;spacingRight=3;rotatable=0;labelPosition=right;points=[];portConstraint=eastwest;strokeColor=inherit;" vertex="1" parent="h962pQqPmAyZ0oJqMDP0-51">
          <mxGeometry y="47.2" width="420" height="8" as="geometry" />
        </mxCell>
        <mxCell id="h962pQqPmAyZ0oJqMDP0-53" value="+ calcular(origen: String, destino: String) : String" style="text;strokeColor=none;fillColor=none;align=left;verticalAlign=top;spacingLeft=4;spacingRight=4;overflow=hidden;rotatable=0;points=[[0,0.5],[1,0.5]];portConstraint=eastwest;" vertex="1" parent="h962pQqPmAyZ0oJqMDP0-51">
          <mxGeometry y="55.2" width="420" height="47" as="geometry" />
        </mxCell>
        <mxCell id="h962pQqPmAyZ0oJqMDP0-54" value="RutaTuristica" style="swimlane;fontStyle=1;align=center;verticalAlign=top;childLayout=stackLayout;horizontal=1;startSize=47.2;horizontalStack=0;resizeParent=1;resizeParentMax=0;resizeLast=0;collapsible=0;marginBottom=0;" vertex="1" parent="1">
          <mxGeometry x="412" y="972" width="425" height="102.2" as="geometry" />
        </mxCell>
        <mxCell id="h962pQqPmAyZ0oJqMDP0-55" style="line;strokeWidth=1;fillColor=none;align=left;verticalAlign=middle;spacingTop=-1;spacingLeft=3;spacingRight=3;rotatable=0;labelPosition=right;points=[];portConstraint=eastwest;strokeColor=inherit;" vertex="1" parent="h962pQqPmAyZ0oJqMDP0-54">
          <mxGeometry y="47.2" width="425" height="8" as="geometry" />
        </mxCell>
        <mxCell id="h962pQqPmAyZ0oJqMDP0-56" value="+ calcular(origen: String, destino: String) : String" style="text;strokeColor=none;fillColor=none;align=left;verticalAlign=top;spacingLeft=4;spacingRight=4;overflow=hidden;rotatable=0;points=[[0,0.5],[1,0.5]];portConstraint=eastwest;" vertex="1" parent="h962pQqPmAyZ0oJqMDP0-54">
          <mxGeometry y="55.2" width="425" height="47" as="geometry" />
        </mxCell>
        <mxCell id="h962pQqPmAyZ0oJqMDP0-57" value="Cliente" style="swimlane;fontStyle=1;align=center;verticalAlign=top;childLayout=stackLayout;horizontal=1;startSize=47.2;horizontalStack=0;resizeParent=1;resizeParentMax=0;resizeLast=0;collapsible=0;marginBottom=0;" vertex="1" parent="1">
          <mxGeometry x="20" y="356" width="252" height="102.2" as="geometry" />
        </mxCell>
        <mxCell id="h962pQqPmAyZ0oJqMDP0-58" style="line;strokeWidth=1;fillColor=none;align=left;verticalAlign=middle;spacingTop=-1;spacingLeft=3;spacingRight=3;rotatable=0;labelPosition=right;points=[];portConstraint=eastwest;strokeColor=inherit;" vertex="1" parent="h962pQqPmAyZ0oJqMDP0-57">
          <mxGeometry y="47.2" width="252" height="8" as="geometry" />
        </mxCell>
        <mxCell id="h962pQqPmAyZ0oJqMDP0-59" value="+ main(args: String[]) : void" style="text;strokeColor=none;fillColor=none;align=left;verticalAlign=top;spacingLeft=4;spacingRight=4;overflow=hidden;rotatable=0;points=[[0,0.5],[1,0.5]];portConstraint=eastwest;" vertex="1" parent="h962pQqPmAyZ0oJqMDP0-57">
          <mxGeometry y="55.2" width="252" height="47" as="geometry" />
        </mxCell>
        <mxCell id="h962pQqPmAyZ0oJqMDP0-60" value="" style="curved=1;startArrow=diamondThin;startSize=14;startFill=0;endArrow=none;exitX=1;exitY=0.5;rounded=0;" edge="1" parent="1" source="h962pQqPmAyZ0oJqMDP0-34">
          <mxGeometry relative="1" as="geometry">
            <Array as="points">
              <mxPoint x="900" y="170" />
            </Array>
            <mxPoint x="1040" y="310" as="targetPoint" />
          </mxGeometry>
        </mxCell>
        <mxCell id="h962pQqPmAyZ0oJqMDP0-61" value="" style="curved=1;dashed=1;startArrow=none;endArrow=block;endSize=16;endFill=0;exitX=1;exitY=0.5;entryX=0.3;entryY=0;rounded=0;" edge="1" parent="1" source="h962pQqPmAyZ0oJqMDP0-42" target="h962pQqPmAyZ0oJqMDP0-39">
          <mxGeometry relative="1" as="geometry">
            <Array as="points">
              <mxPoint x="935" y="331" />
            </Array>
          </mxGeometry>
        </mxCell>
        <mxCell id="h962pQqPmAyZ0oJqMDP0-62" value="" style="curved=1;dashed=1;startArrow=none;endArrow=block;endSize=16;endFill=0;exitX=1;exitY=0.5;entryX=0;entryY=0.07;rounded=0;" edge="1" parent="1" source="h962pQqPmAyZ0oJqMDP0-45" target="h962pQqPmAyZ0oJqMDP0-39">
          <mxGeometry relative="1" as="geometry">
            <Array as="points">
              <mxPoint x="935" y="507" />
            </Array>
          </mxGeometry>
        </mxCell>
        <mxCell id="h962pQqPmAyZ0oJqMDP0-63" value="" style="curved=1;dashed=1;startArrow=none;endArrow=block;endSize=16;endFill=0;exitX=1;exitY=0.5;entryX=0;entryY=0.93;rounded=0;" edge="1" parent="1" source="h962pQqPmAyZ0oJqMDP0-48" target="h962pQqPmAyZ0oJqMDP0-39">
          <mxGeometry relative="1" as="geometry">
            <Array as="points">
              <mxPoint x="935" y="683" />
            </Array>
          </mxGeometry>
        </mxCell>
        <mxCell id="h962pQqPmAyZ0oJqMDP0-64" value="" style="curved=1;dashed=1;startArrow=none;endArrow=block;endSize=16;endFill=0;exitX=1;exitY=0.5;entryX=0.3;entryY=1;rounded=0;" edge="1" parent="1" source="h962pQqPmAyZ0oJqMDP0-51" target="h962pQqPmAyZ0oJqMDP0-39">
          <mxGeometry relative="1" as="geometry">
            <Array as="points">
              <mxPoint x="935" y="859" />
            </Array>
          </mxGeometry>
        </mxCell>
        <mxCell id="h962pQqPmAyZ0oJqMDP0-65" value="" style="curved=1;dashed=1;startArrow=none;endArrow=block;endSize=16;endFill=0;exitX=1;exitY=0.5;entryX=0.38;entryY=1;rounded=0;" edge="1" parent="1" source="h962pQqPmAyZ0oJqMDP0-54" target="h962pQqPmAyZ0oJqMDP0-39">
          <mxGeometry relative="1" as="geometry">
            <Array as="points">
              <mxPoint x="935" y="1035" />
            </Array>
          </mxGeometry>
        </mxCell>
        <mxCell id="h962pQqPmAyZ0oJqMDP0-66" value="" style="curved=1;startArrow=none;endArrow=open;endSize=12;exitX=0.66;exitY=0;entryX=0;entryY=0.5;rounded=0;" edge="1" parent="1" source="h962pQqPmAyZ0oJqMDP0-57" target="h962pQqPmAyZ0oJqMDP0-34">
          <mxGeometry relative="1" as="geometry">
            <Array as="points">
              <mxPoint x="333" y="134" />
            </Array>
          </mxGeometry>
        </mxCell>
        <mxCell id="h962pQqPmAyZ0oJqMDP0-67" value="" style="curved=1;dashed=1;startArrow=none;endArrow=open;endSize=12;exitX=1;exitY=0.03;entryX=0;entryY=0.5;rounded=0;" edge="1" parent="1" source="h962pQqPmAyZ0oJqMDP0-57" target="h962pQqPmAyZ0oJqMDP0-42">
          <mxGeometry relative="1" as="geometry">
            <Array as="points" />
          </mxGeometry>
        </mxCell>
        <mxCell id="h962pQqPmAyZ0oJqMDP0-68" value="" style="curved=1;dashed=1;startArrow=none;endArrow=open;endSize=12;exitX=1;exitY=0.97;entryX=0;entryY=0.5;rounded=0;" edge="1" parent="1" source="h962pQqPmAyZ0oJqMDP0-57" target="h962pQqPmAyZ0oJqMDP0-45">
          <mxGeometry relative="1" as="geometry">
            <Array as="points" />
          </mxGeometry>
        </mxCell>
        <mxCell id="h962pQqPmAyZ0oJqMDP0-69" value="" style="curved=1;dashed=1;startArrow=none;endArrow=open;endSize=12;exitX=0.68;exitY=1;entryX=0;entryY=0.5;rounded=0;" edge="1" parent="1" source="h962pQqPmAyZ0oJqMDP0-57" target="h962pQqPmAyZ0oJqMDP0-48">
          <mxGeometry relative="1" as="geometry">
            <Array as="points">
              <mxPoint x="333" y="683" />
            </Array>
          </mxGeometry>
        </mxCell>
        <mxCell id="h962pQqPmAyZ0oJqMDP0-71" value="" style="curved=1;dashed=1;startArrow=none;endArrow=open;endSize=12;exitX=0.68;exitY=1;entryX=0.004;entryY=0.362;rounded=0;entryDx=0;entryDy=0;entryPerimeter=0;" edge="1" parent="1" target="h962pQqPmAyZ0oJqMDP0-51">
          <mxGeometry relative="1" as="geometry">
            <Array as="points">
              <mxPoint x="272" y="683.2" />
            </Array>
            <mxPoint x="130" y="458.2" as="sourcePoint" />
            <mxPoint x="332" y="671.2" as="targetPoint" />
          </mxGeometry>
        </mxCell>
        <mxCell id="h962pQqPmAyZ0oJqMDP0-72" value="" style="curved=1;dashed=1;startArrow=none;endArrow=open;endSize=12;exitX=0.339;exitY=0.961;entryX=0.011;entryY=0.398;rounded=0;entryDx=0;entryDy=0;entryPerimeter=0;exitDx=0;exitDy=0;exitPerimeter=0;" edge="1" parent="1" source="h962pQqPmAyZ0oJqMDP0-59" target="h962pQqPmAyZ0oJqMDP0-54">
          <mxGeometry relative="1" as="geometry">
            <Array as="points">
              <mxPoint x="200" y="760" />
            </Array>
            <mxPoint x="380" y="830" as="sourcePoint" />
            <mxPoint x="582" y="1043" as="targetPoint" />
          </mxGeometry>
        </mxCell>
        <mxCell id="h962pQqPmAyZ0oJqMDP0-73" value="" style="curved=1;startArrow=none;endArrow=open;endSize=12;entryX=0.5;entryY=0;rounded=0;entryDx=0;entryDy=0;" edge="1" parent="1" target="h962pQqPmAyZ0oJqMDP0-39">
          <mxGeometry relative="1" as="geometry">
            <Array as="points" />
            <mxPoint x="1040" y="310" as="sourcePoint" />
            <mxPoint x="1244" y="140" as="targetPoint" />
          </mxGeometry>
        </mxCell>
      </root>
    </mxGraphModel>
  </diagram>
</mxfile>
